<svg xmlns="http://www.w3.org/2000/svg" width="294" height="720" viewBox="0 0 294 720" fill="none">
    <path d="M293.032 561.887L293.72 562.185L290.642 569.284L289.955 568.986L285.478 579.312L286.166 579.61L284.487 583.482L283.8 583.184L283.24 584.475L283.928 584.773L280.85 591.872L280.163 591.574L275.686 601.9L276.374 602.198L274.695 606.07L274.008 605.772L273.448 607.063L274.136 607.361L271.058 614.46L270.371 614.162L265.894 624.488L266.582 624.786L264.903 628.659L264.216 628.361L263.656 629.651L264.344 629.949L261.266 637.049L260.579 636.75L256.102 647.076L256.79 647.375L255.111 651.247L254.424 650.949L253.864 652.24L254.552 652.538L251.474 659.637L250.787 659.339L246.31 669.665L246.998 669.963L245.319 673.835L244.632 673.537L244.072 674.828L244.76 675.126L241.682 682.225L240.995 681.927L236.518 692.253L237.206 692.551L235.527 696.423L234.84 696.125L234.28 697.416L234.968 697.714L231.89 704.813L231.203 704.515L226.726 714.841L227.414 715.139L225.846 718.756L225.808 718.679L225.416 718.873L225.048 718.714L225.02 718.777L221.619 711.912L222.29 711.58L217.175 701.254L216.503 701.586L214.584 697.714L215.256 697.381L214.617 696.091L213.945 696.423L210.428 689.324L211.099 688.991L205.984 678.665L205.312 678.998L203.393 675.126L204.065 674.793L203.426 673.502L202.754 673.835L199.237 666.736L199.908 666.403L194.793 656.077L194.121 656.41L192.202 652.538L192.874 652.205L192.235 650.914L191.563 651.247L188.046 644.148L188.717 643.815L183.602 633.489L182.93 633.822L181.011 629.949L181.683 629.617L181.044 628.326L180.372 628.659L176.855 621.56L177.526 621.227L172.411 610.901L171.739 611.234L169.82 607.361L170.492 607.028L169.853 605.738L169.181 606.07L165.664 598.971L166.335 598.638L161.22 588.312L160.548 588.645L158.629 584.773L159.301 584.44L158.662 583.149L157.99 583.482L154.473 576.383L155.144 576.05L150.029 565.724L149.357 566.057L147.538 562.385L147.7 562.055L148.11 561.852L147.79 561.207L147.117 559.848L146.446 561.208L146.128 561.853L146.538 562.055L146.701 562.386L143.3 569.284L142.628 568.952L137.536 579.278L138.209 579.61L136.299 583.482L135.627 583.151L134.99 584.441L135.663 584.773L132.162 591.872L131.49 591.541L126.399 601.867L127.071 602.198L125.162 606.07L124.489 605.739L123.853 607.03L124.525 607.361L121.025 614.46L120.352 614.129L115.261 624.455L115.933 624.786L114.024 628.659L113.352 628.327L112.715 629.618L113.387 629.949L109.887 637.049L109.215 636.717L104.123 647.043L104.796 647.375L102.886 651.247L102.214 650.915L101.577 652.206L102.25 652.538L98.7494 659.637L98.077 659.305L92.9855 669.631L93.6579 669.963L91.7486 673.835L91.0762 673.504L90.4398 674.794L91.1122 675.126L87.6118 682.225L86.9394 681.894L81.8479 692.22L82.5203 692.551L80.6109 696.423L79.9386 696.092L79.3021 697.383L79.9745 697.714L76.4741 704.813L75.8017 704.482L70.7102 714.808L71.3826 715.139L69.5898 718.775L69.5628 718.713L69.1933 718.874L68.8009 718.68L68.7639 718.755L65.7955 711.912L66.4832 711.614L62.0037 701.288L61.316 701.586L59.6362 697.714L60.324 697.416L59.764 696.125L59.0763 696.423L55.9967 689.324L56.6844 689.026L52.205 678.7L51.5172 678.998L49.8374 675.126L50.5252 674.828L49.9652 673.537L49.2775 673.835L46.1979 666.736L46.8856 666.438L42.4062 656.112L41.7184 656.41L40.0386 652.538L40.7264 652.239L40.1664 650.949L39.4787 651.247L36.3991 644.148L37.0868 643.849L32.6073 633.523L31.9196 633.822L30.2398 629.949L30.9276 629.651L30.3676 628.36L29.6799 628.659L26.6003 621.56L27.288 621.261L22.8086 610.935L22.1208 611.234L20.441 607.361L21.1288 607.063L20.5688 605.772L19.8811 606.07L16.8015 598.971L17.4892 598.673L13.0098 588.347L12.322 588.645L10.6422 584.773L11.33 584.475L10.77 583.184L10.0823 583.482L7.00268 576.383L7.69041 576.085L3.21096 565.759L2.52323 566.057L0.843445 562.185L1.53116 561.886L1.31312 561.384V560.775H0.563477V552.371H1.31312V540.147H0.563477V535.563H1.31312V534.035H0.563477V525.631H1.31312V513.407H0.563477V508.823H1.31312V507.295H0.563477V498.891H1.31312V486.667H0.563477V482.083H1.31312V480.555H0.563477V472.151H1.31312V459.927H0.563477V455.343H1.31312V453.815H0.563477V445.411H1.31312V433.187H0.563477V428.603H1.31312V427.076H0.563477V418.672H1.31312V406.448H0.563477V401.864H1.31312V400.336H0.563477V391.932H1.31312V379.708H0.563477V375.124H1.31312V373.596H0.563477V365.192H1.31312V352.968H0.563477V348.384H1.31312V346.856H0.563477V338.452H1.31312V326.228H0.563477V321.644H1.31312V320.116H0.563477V311.712H1.31312V299.488H0.563477V294.904H1.31312V293.376H0.563477V284.972H1.31312V272.748H0.563477V268.164H1.31312V266.636H0.563477V258.232H1.31312V246.008H0.563477V241.424H1.31312V239.896H0.563477V231.492H1.31312V219.268H0.563477V214.684H1.31312V213.156H0.563477V204.752H1.31312V192.528H0.563477V187.944H1.31312V186.416H0.563477V178.012H1.31312V165.788H0.563477V161.204H1.31312V159.676H0.563477V151.272H1.31312V139.048H0.563477V134.464H1.31312V132.936H0.563477V124.532H1.31312V112.308H0.563477V107.724H1.31312V106.196H0.563477V97.7919H1.31312V85.5679H0.563477V80.9839H1.31312V79.4559H0.563477V71.0519H1.31312V58.8279H0.563477V54.2439H1.31312V52.7159H0.563477V44.312H1.31312V32.088H0.563477V27.504H1.31312V25.976H0.563477V17.572H1.31312V5.34799H0.563477V0.763999H1.31312V0.749643H1.32572V0H9.70959V0.749643H21.9044V0H26.4774V0.749643H28.0017V0H36.3856V0.749643H48.5804V0H53.1534V0.749643H54.6778V0H63.0616V0.749643H75.2564V0H79.8294V0.749643H81.3538V0H89.7377V0.749643H101.932V0H106.505V0.749643H108.03V0H116.414V0.749643H128.608V0H133.181V0.749643H134.706V0H143.09V0.749643H155.284V0H159.857V0.749643H161.382V0H169.766V0.749643H181.96V0H186.533V0.749643H188.058V0H196.442V0.749643H208.636V0H213.21V0.749643H214.734V0H223.118V0.749643H235.312V0H239.886V0.749643H241.41V0H249.794V0.749643H261.989V0H266.562V0.749643H268.086V0H276.47V0.749643H288.665V0H293.238V0.749643H293.25V0.764028H294V9.16803H293.25V21.392H294V25.976H293.25V27.504H294V35.908H293.25V48.132H294V52.716H293.25V54.244H294V62.648H293.25V74.872H294V79.456H293.25V80.9839H294V89.3879H293.25V101.612H294V106.196H293.25V107.724H294V116.128H293.25V128.352H294V132.936H293.25V134.464H294V142.868H293.25V155.092H294V159.676H293.25V161.204H294V169.608H293.25V181.832H294V186.416H293.25V187.944H294V196.348H293.25V208.572H294V213.156H293.25V214.684H294V223.088H293.25V235.312H294V239.896H293.25V241.424H294V249.828H293.25V262.052H294V266.636H293.25V268.164H294V276.568H293.25V288.792H294V293.376H293.25V294.904H294V303.308H293.25V315.532H294V320.116H293.25V321.644H294V330.048H293.25V342.272H294V346.856H293.25V348.384H294V356.788H293.25V369.012H294V373.596H293.25V375.124H294V383.528H293.25V395.752H294V400.336H293.25V401.864H294V410.268H293.25V422.492H294V427.076H293.25V428.604H294V437.008H293.25V449.232H294V453.815H293.25V455.343H294V463.747H293.25V475.971H294V480.555H293.25V482.083H294V490.487H293.25V502.711H294V507.295H293.25V508.823H294V517.227H293.25V529.451H294V534.035H293.25V535.563H294V543.967H293.25V556.191H294V560.775H293.25V561.384L293.032 561.887Z" fill="#100E0D" stroke="#FC9538" stroke-width="1.49929" stroke-dasharray="1.5 4.5 11.99 8.25"/>
  </svg>