<svg xmlns="http://www.w3.org/2000/svg" width="294" height="720" viewBox="0 0 294 720" fill="none">
  <path d="M292.469 561.887L293.156 562.185L290.079 569.284L289.391 568.986L284.915 579.312L285.603 579.61L283.924 583.482L283.236 583.184L282.677 584.475L283.364 584.773L280.287 591.872L279.599 591.574L275.123 601.9L275.811 602.198L274.132 606.07L273.444 605.772L272.885 607.063L273.572 607.361L270.495 614.46L269.807 614.162L265.331 624.488L266.019 624.786L264.34 628.659L263.652 628.361L263.093 629.651L263.78 629.949L260.703 637.049L260.015 636.75L255.539 647.077L256.227 647.375L254.548 651.247L253.86 650.949L253.301 652.24L253.988 652.538L250.911 659.637L250.223 659.339L245.747 669.665L246.435 669.963L244.756 673.835L244.068 673.537L243.509 674.828L244.196 675.126L241.119 682.225L240.431 681.927L235.955 692.253L236.643 692.551L234.964 696.423L234.276 696.125L233.717 697.416L234.404 697.714L231.327 704.813L230.639 704.515L226.163 714.841L226.851 715.139L225.283 718.756L225.245 718.679L224.853 718.873L224.484 718.714L224.457 718.777L221.063 711.913L221.735 711.58L216.628 701.254L215.956 701.586L214.042 697.714L214.714 697.382L214.075 696.091L213.403 696.423L209.893 689.324L210.565 688.992L205.459 678.666L204.787 678.998L202.872 675.126L203.544 674.794L202.906 673.503L202.234 673.835L198.723 666.736L199.395 666.404L194.289 656.078L193.617 656.41L191.703 652.538L192.374 652.205L191.736 650.915L191.064 651.247L187.554 644.148L188.226 643.815L183.12 633.489L182.448 633.822L180.533 629.949L181.205 629.617L180.567 628.326L179.895 628.659L176.384 621.56L177.056 621.227L171.95 610.901L171.278 611.234L169.363 607.361L170.035 607.029L169.397 605.738L168.725 606.07L165.215 598.971L165.887 598.639L160.781 588.313L160.109 588.645L158.194 584.773L158.866 584.441L158.228 583.15L157.556 583.482L154.045 576.383L154.717 576.051L149.611 565.725L148.939 566.057L147.123 562.385L147.286 562.055L147.696 561.852L147.377 561.207L146.705 559.848L146.033 561.207L145.714 561.853L146.124 562.055L146.287 562.385L142.879 569.284L142.207 568.952L137.106 579.278L137.778 579.61L135.865 583.482L135.193 583.15L134.555 584.441L135.227 584.773L131.72 591.872L131.048 591.54L125.947 601.866L126.619 602.198L124.706 606.07L124.034 605.738L123.396 607.029L124.068 607.361L120.561 614.46L119.889 614.128L114.788 624.454L115.46 624.786L113.547 628.659L112.875 628.327L112.237 629.617L112.909 629.949L109.402 637.049L108.73 636.717L103.629 647.043L104.301 647.375L102.388 651.247L101.716 650.915L101.078 652.206L101.75 652.538L98.2428 659.637L97.5707 659.305L92.4694 669.631L93.1416 669.963L91.2286 673.835L90.5565 673.503L89.9188 674.794L90.5909 675.126L87.0838 682.225L86.4117 681.893L81.3104 692.219L81.9825 692.551L80.0695 696.423L79.3974 696.091L78.7597 697.382L79.4318 697.714L75.9247 704.813L75.2526 704.481L70.1513 714.807L70.8234 715.139L69.0267 718.776L68.9993 718.713L68.6304 718.873L68.2383 718.68L68.2007 718.756L65.232 711.912L65.9197 711.614L61.4403 701.288L60.7525 701.586L59.0727 697.714L59.7605 697.416L59.2005 696.125L58.5128 696.423L55.4332 689.324L56.1209 689.026L51.6415 678.7L50.9538 678.998L49.274 675.126L49.9617 674.828L49.4017 673.537L48.714 673.835L45.6344 666.736L46.3221 666.438L41.8427 656.112L41.1549 656.41L39.4752 652.538L40.1629 652.239L39.6029 650.949L38.9152 651.247L35.8356 644.148L36.5233 643.849L32.0439 633.523L31.3561 633.822L29.6764 629.949L30.3641 629.651L29.8041 628.36L29.1164 628.659L26.0368 621.56L26.7245 621.261L22.2451 610.935L21.5574 611.234L19.8776 607.361L20.5653 607.063L20.0054 605.772L19.3176 606.07L16.238 598.971L16.9257 598.673L12.4463 588.347L11.7586 588.645L10.0788 584.773L10.7665 584.475L10.2066 583.184L9.51884 583.482L6.43921 576.383L7.12693 576.085L2.64748 565.759L1.95976 566.057L0.279968 562.185L0.967687 561.886L0.749643 561.384V560.775H0V552.371H0.749643V540.147H0V535.563H0.749643V534.035H0V525.631H0.749643V513.407H0V508.823H0.749643V507.295H0V498.891H0.749643V486.667H0V482.083H0.749643V480.555H0V472.151H0.749643V459.927H0V455.343H0.749643V453.815H0V445.411H0.749643V433.187H0V428.603H0.749643V427.076H0V418.672H0.749643V406.448H0V401.864H0.749643V400.336H0V391.932H0.749643V379.708H0V375.124H0.749643V373.596H0V365.192H0.749643V352.968H0V348.384H0.749643V346.856H0V338.452H0.749643V326.228H0V321.644H0.749643V320.116H0V311.712H0.749643V299.488H0V294.904H0.749643V293.376H0V284.972H0.749643V272.748H0V268.164H0.749643V266.636H0V258.232H0.749643V246.008H0V241.424H0.749643V239.896H0V231.492H0.749643V219.268H0V214.684H0.749643V213.156H0V204.752H0.749643V192.528H0V187.944H0.749643V186.416H0V178.012H0.749643V165.788H0V161.204H0.749643V159.676H0V151.272H0.749643V139.048H0V134.464H0.749643V132.936H0V124.532H0.749643V112.308H0V107.724H0.749643V106.196H0V97.7919H0.749643V85.5679H0V80.9839H0.749643V79.4559H0V71.0519H0.749643V58.8279H0V54.2439H0.749643V52.7159H0V44.312H0.749643V32.088H0V27.504H0.749643V25.976H0V17.572H0.749643V5.34799H0V0.763999H0.749643V0.749643H0.762239V0H9.14611V0.749643H21.3409V0H25.9139V0.749643H27.4383V0H35.8222V0.749643H48.0169V0H52.5899V0.749643H54.1143V0H62.4982V0.749643H74.6929V0H79.266V0.749643H80.7903V0H89.1742V0.749643H101.369V0H105.942V0.749643H107.466V0H115.85V0.749643H128.045V0H132.618V0.749643H134.142V0H142.526V0.749643H154.721V0H159.294V0.749643H160.818V0H169.202V0.749643H181.397V0H185.97V0.749643H187.494V0H195.878V0.749643H208.073V0H212.646V0.749643H214.17V0H222.554V0.749643H234.749V0H239.322V0.749643H240.846V0H249.23V0.749643H261.425V0H265.998V0.749643H267.522V0H275.906V0.749643H288.101V0H292.674V0.749643H292.687V0.764028H293.436V9.16803H292.687V21.392H293.436V25.976H292.687V27.504H293.436V35.908H292.687V48.132H293.436V52.716H292.687V54.244H293.436V62.648H292.687V74.872H293.436V79.456H292.687V80.9839H293.436V89.3879H292.687V101.612H293.436V106.196H292.687V107.724H293.436V116.128H292.687V128.352H293.436V132.936H292.687V134.464H293.436V142.868H292.687V155.092H293.436V159.676H292.687V161.204H293.436V169.608H292.687V181.832H293.436V186.416H292.687V187.944H293.436V196.348H292.687V208.572H293.436V213.156H292.687V214.684H293.436V223.088H292.687V235.312H293.436V239.896H292.687V241.424H293.436V249.828H292.687V262.052H293.436V266.636H292.687V268.164H293.436V276.568H292.687V288.792H293.436V293.376H292.687V294.904H293.436V303.308H292.687V315.532H293.436V320.116H292.687V321.644H293.436V330.048H292.687V342.272H293.436V346.856H292.687V348.384H293.436V356.788H292.687V369.012H293.436V373.596H292.687V375.124H293.436V383.528H292.687V395.752H293.436V400.336H292.687V401.864H293.436V410.268H292.687V422.492H293.436V427.076H292.687V428.604H293.436V437.008H292.687V449.232H293.436V453.815H292.687V455.343H293.436V463.747H292.687V475.971H293.436V480.555H292.687V482.083H293.436V490.487H292.687V502.711H293.436V507.295H292.687V508.823H293.436V517.227H292.687V529.451H293.436V534.035H292.687V535.563H293.436V543.967H292.687V556.191H293.436V560.775H292.687V561.384L292.469 561.887Z" fill="#582121" stroke="#FC9538" stroke-width="1.49929" stroke-dasharray="1.5 4.5 11.99 8.25"/>
</svg>