<svg xmlns="http://www.w3.org/2000/svg" width="295" height="720" viewBox="0 0 295 720" fill="none">
    <path d="M293.325 561.887L294.013 562.185L290.935 569.284L290.248 568.986L285.771 579.312L286.459 579.61L284.78 583.482L284.093 583.184L283.533 584.475L284.221 584.773L281.143 591.872L280.456 591.574L275.979 601.9L276.667 602.198L274.988 606.07L274.301 605.772L273.741 607.063L274.429 607.361L271.351 614.46L270.664 614.162L266.187 624.488L266.875 624.786L265.196 628.659L264.509 628.361L263.949 629.651L264.637 629.949L261.559 637.049L260.872 636.75L256.395 647.076L257.083 647.375L255.404 651.247L254.717 650.949L254.157 652.24L254.845 652.538L251.767 659.637L251.08 659.339L246.603 669.665L247.291 669.963L245.612 673.835L244.925 673.537L244.365 674.828L245.053 675.126L241.975 682.225L241.288 681.927L236.811 692.253L237.499 692.551L235.82 696.423L235.133 696.125L234.573 697.416L235.261 697.714L232.183 704.813L231.496 704.515L227.019 714.841L227.707 715.139L226.139 718.756L226.101 718.679L225.709 718.873L225.341 718.714L225.313 718.777L221.912 711.912L222.583 711.58L217.467 701.254L216.796 701.586L214.877 697.714L215.549 697.381L214.91 696.091L214.238 696.423L210.721 689.324L211.392 688.991L206.276 678.665L205.605 678.998L203.686 675.126L204.358 674.793L203.719 673.502L203.047 673.835L199.53 666.736L200.201 666.403L195.085 656.077L194.414 656.41L192.495 652.538L193.167 652.205L192.528 650.914L191.856 651.247L188.339 644.148L189.01 643.815L183.895 633.489L183.223 633.822L181.304 629.949L181.976 629.617L181.337 628.326L180.665 628.659L177.148 621.56L177.819 621.227L172.704 610.901L172.032 611.234L170.113 607.361L170.785 607.028L170.146 605.738L169.474 606.07L165.957 598.971L166.628 598.638L161.513 588.312L160.841 588.645L158.922 584.773L159.594 584.44L158.955 583.149L158.283 583.482L154.766 576.383L155.437 576.05L150.322 565.724L149.65 566.057L147.831 562.385L147.993 562.055L148.403 561.852L148.083 561.207L147.41 559.848L146.739 561.208L146.421 561.853L146.831 562.055L146.994 562.386L143.593 569.284L142.921 568.952L137.829 579.278L138.501 579.61L136.592 583.482L135.92 583.151L135.283 584.441L135.956 584.773L132.455 591.872L131.783 591.541L126.691 601.867L127.364 602.198L125.455 606.07L124.782 605.739L124.146 607.03L124.818 607.361L121.318 614.46L120.645 614.129L115.554 624.455L116.226 624.786L114.317 628.659L113.645 628.327L113.008 629.618L113.68 629.949L110.18 637.049L109.508 636.717L104.416 647.043L105.089 647.375L103.179 651.247L102.507 650.915L101.87 652.206L102.543 652.538L99.0424 659.637L98.37 659.305L93.2785 669.631L93.9509 669.963L92.0416 673.835L91.3692 673.504L90.7328 674.794L91.4051 675.126L87.9047 682.225L87.2324 681.894L82.1409 692.22L82.8132 692.551L80.9039 696.423L80.2315 696.092L79.5951 697.383L80.2675 697.714L76.7671 704.813L76.0947 704.482L71.0032 714.808L71.6756 715.139L69.8827 718.775L69.8558 718.713L69.4863 718.874L69.0939 718.68L69.0568 718.755L66.0884 711.912L66.7762 711.614L62.2967 701.288L61.609 701.586L59.9292 697.714L60.6169 697.416L60.057 696.125L59.3693 696.423L56.2896 689.324L56.9774 689.026L52.4979 678.7L51.8102 678.998L50.1304 675.126L50.8181 674.828L50.2582 673.537L49.5705 673.835L46.4908 666.736L47.1786 666.438L42.6991 656.112L42.0114 656.41L40.3316 652.538L41.0193 652.239L40.4594 650.949L39.7717 651.247L36.692 644.148L37.3798 643.849L32.9003 633.523L32.2126 633.822L30.5328 629.949L31.2205 629.651L30.6606 628.36L29.9729 628.659L26.8932 621.56L27.581 621.261L23.1015 610.935L22.4138 611.234L20.734 607.361L21.4217 607.063L20.8618 605.772L20.1741 606.07L17.0945 598.971L17.7822 598.673L13.3027 588.347L12.615 588.645L10.9352 584.773L11.6229 584.475L11.063 583.184L10.3753 583.482L7.29565 576.383L7.98338 576.085L3.50393 565.759L2.8162 566.057L1.13641 562.185L1.82413 561.886L1.60609 561.384V560.775H0.856445V552.371H1.60609V540.147H0.856445V535.563H1.60609V534.035H0.856445V525.631H1.60609V513.407H0.856445V508.823H1.60609V507.295H0.856445V498.891H1.60609V486.667H0.856445V482.083H1.60609V480.555H0.856445V472.151H1.60609V459.927H0.856445V455.343H1.60609V453.815H0.856445V445.411H1.60609V433.187H0.856445V428.603H1.60609V427.076H0.856445V418.672H1.60609V406.448H0.856445V401.864H1.60609V400.336H0.856445V391.932H1.60609V379.708H0.856445V375.124H1.60609V373.596H0.856445V365.192H1.60609V352.968H0.856445V348.384H1.60609V346.856H0.856445V338.452H1.60609V326.228H0.856445V321.644H1.60609V320.116H0.856445V311.712H1.60609V299.488H0.856445V294.904H1.60609V293.376H0.856445V284.972H1.60609V272.748H0.856445V268.164H1.60609V266.636H0.856445V258.232H1.60609V246.008H0.856445V241.424H1.60609V239.896H0.856445V231.492H1.60609V219.268H0.856445V214.684H1.60609V213.156H0.856445V204.752H1.60609V192.528H0.856445V187.944H1.60609V186.416H0.856445V178.012H1.60609V165.788H0.856445V161.204H1.60609V159.676H0.856445V151.272H1.60609V139.048H0.856445V134.464H1.60609V132.936H0.856445V124.532H1.60609V112.308H0.856445V107.724H1.60609V106.196H0.856445V97.7919H1.60609V85.5679H0.856445V80.9839H1.60609V79.4559H0.856445V71.0519H1.60609V58.8279H0.856445V54.2439H1.60609V52.7159H0.856445V44.312H1.60609V32.088H0.856445V27.504H1.60609V25.976H0.856445V17.572H1.60609V5.34799H0.856445V0.763999H1.60609V0.749643H1.61868V0H10.0026V0.749643H22.1973V0H26.7704V0.749643H28.2947V0H36.6786V0.749643H48.8734V0H53.4464V0.749643H54.9707V0H63.3546V0.749643H75.5494V0H80.1224V0.749643H81.6467V0H90.0306V0.749643H102.225V0H106.798V0.749643H108.323V0H116.707V0.749643H128.901V0H133.474V0.749643H134.999V0H143.383V0.749643H155.577V0H160.15V0.749643H161.675V0H170.059V0.749643H182.253V0H186.826V0.749643H188.351V0H196.735V0.749643H208.929V0H213.502V0.749643H215.027V0H223.411V0.749643H235.605V0H240.179V0.749643H241.703V0H250.087V0.749643H262.281V0H266.855V0.749643H268.379V0H276.763V0.749643H288.958V0H293.531V0.749643H293.543V0.764028H294.293V9.16803H293.543V21.392H294.293V25.976H293.543V27.504H294.293V35.908H293.543V48.132H294.293V52.716H293.543V54.244H294.293V62.648H293.543V74.872H294.293V79.456H293.543V80.9839H294.293V89.3879H293.543V101.612H294.293V106.196H293.543V107.724H294.293V116.128H293.543V128.352H294.293V132.936H293.543V134.464H294.293V142.868H293.543V155.092H294.293V159.676H293.543V161.204H294.293V169.608H293.543V181.832H294.293V186.416H293.543V187.944H294.293V196.348H293.543V208.572H294.293V213.156H293.543V214.684H294.293V223.088H293.543V235.312H294.293V239.896H293.543V241.424H294.293V249.828H293.543V262.052H294.293V266.636H293.543V268.164H294.293V276.568H293.543V288.792H294.293V293.376H293.543V294.904H294.293V303.308H293.543V315.532H294.293V320.116H293.543V321.644H294.293V330.048H293.543V342.272H294.293V346.856H293.543V348.384H294.293V356.788H293.543V369.012H294.293V373.596H293.543V375.124H294.293V383.528H293.543V395.752H294.293V400.336H293.543V401.864H294.293V410.268H293.543V422.492H294.293V427.076H293.543V428.604H294.293V437.008H293.543V449.232H294.293V453.815H293.543V455.343H294.293V463.747H293.543V475.971H294.293V480.555H293.543V482.083H294.293V490.487H293.543V502.711H294.293V507.295H293.543V508.823H294.293V517.227H293.543V529.451H294.293V534.035H293.543V535.563H294.293V543.967H293.543V556.191H294.293V560.775H293.543V561.384L293.325 561.887Z" fill="#6E441D" stroke="#FC9538" stroke-width="1.49929" stroke-dasharray="1.5 4.5 11.99 8.25"/>
  </svg>